<mxfile host="app.diagrams.net" agent="Mozilla/5.0 (Windows NT 10.0; Win64; x64) AppleWebKit/537.36 (KHTML, like Gecko) Chrome/132.0.0.0 Safari/537.36" version="26.0.10">
  <diagram name="Page-1" id="W4s-PioStWxLlhen99HH">
    <mxGraphModel dx="1120" dy="434" grid="1" gridSize="10" guides="1" tooltips="1" connect="1" arrows="1" fold="1" page="1" pageScale="1" pageWidth="850" pageHeight="1100" math="0" shadow="0">
      <root>
        <mxCell id="0" />
        <mxCell id="1" parent="0" />
        <mxCell id="9yecZXZfRh9bh6N7p5Eo-27" style="edgeStyle=orthogonalEdgeStyle;rounded=0;orthogonalLoop=1;jettySize=auto;html=1;exitX=0;exitY=0.25;exitDx=0;exitDy=0;exitPerimeter=0;entryX=0;entryY=0.25;entryDx=0;entryDy=0;entryPerimeter=0;" edge="1" parent="1" target="9yecZXZfRh9bh6N7p5Eo-1">
          <mxGeometry relative="1" as="geometry">
            <mxPoint x="150" y="130" as="sourcePoint" />
          </mxGeometry>
        </mxCell>
        <mxCell id="9yecZXZfRh9bh6N7p5Eo-28" style="edgeStyle=orthogonalEdgeStyle;rounded=0;orthogonalLoop=1;jettySize=auto;html=1;exitX=0;exitY=0.75;exitDx=0;exitDy=0;exitPerimeter=0;entryX=0;entryY=0.75;entryDx=0;entryDy=0;entryPerimeter=0;" edge="1" parent="1" target="9yecZXZfRh9bh6N7p5Eo-1">
          <mxGeometry relative="1" as="geometry">
            <mxPoint x="120" y="170" as="sourcePoint" />
          </mxGeometry>
        </mxCell>
        <mxCell id="9yecZXZfRh9bh6N7p5Eo-1" value="" style="shape=or;whiteSpace=wrap;html=1;" vertex="1" parent="1">
          <mxGeometry x="170" y="240" width="60" height="80" as="geometry" />
        </mxCell>
        <mxCell id="9yecZXZfRh9bh6N7p5Eo-13" style="edgeStyle=orthogonalEdgeStyle;rounded=0;orthogonalLoop=1;jettySize=auto;html=1;exitX=0.175;exitY=0.25;exitDx=0;exitDy=0;exitPerimeter=0;entryX=0.175;entryY=0.25;entryDx=0;entryDy=0;entryPerimeter=0;" edge="1" parent="1" target="9yecZXZfRh9bh6N7p5Eo-3">
          <mxGeometry relative="1" as="geometry">
            <mxPoint x="120" y="130" as="sourcePoint" />
            <Array as="points">
              <mxPoint x="120" y="131" />
              <mxPoint x="151" y="131" />
              <mxPoint x="151" y="130" />
            </Array>
          </mxGeometry>
        </mxCell>
        <mxCell id="9yecZXZfRh9bh6N7p5Eo-14" style="edgeStyle=orthogonalEdgeStyle;rounded=0;orthogonalLoop=1;jettySize=auto;html=1;exitX=0.175;exitY=0.75;exitDx=0;exitDy=0;exitPerimeter=0;entryX=0.175;entryY=0.75;entryDx=0;entryDy=0;entryPerimeter=0;" edge="1" parent="1" target="9yecZXZfRh9bh6N7p5Eo-3">
          <mxGeometry relative="1" as="geometry">
            <mxPoint x="120" y="170" as="sourcePoint" />
          </mxGeometry>
        </mxCell>
        <mxCell id="9yecZXZfRh9bh6N7p5Eo-3" value="" style="shape=xor;whiteSpace=wrap;html=1;" vertex="1" parent="1">
          <mxGeometry x="180" y="110" width="70" height="80" as="geometry" />
        </mxCell>
        <mxCell id="9yecZXZfRh9bh6N7p5Eo-41" style="edgeStyle=orthogonalEdgeStyle;rounded=0;orthogonalLoop=1;jettySize=auto;html=1;exitX=1;exitY=0.5;exitDx=0;exitDy=0;entryX=0;entryY=0.25;entryDx=0;entryDy=0;entryPerimeter=0;" edge="1" parent="1" source="9yecZXZfRh9bh6N7p5Eo-40" target="9yecZXZfRh9bh6N7p5Eo-4">
          <mxGeometry relative="1" as="geometry" />
        </mxCell>
        <mxCell id="9yecZXZfRh9bh6N7p5Eo-4" value="" style="verticalLabelPosition=bottom;shadow=0;dashed=0;align=center;html=1;verticalAlign=top;shape=mxgraph.electrical.logic_gates.logic_gate;operation=xor;" vertex="1" parent="1">
          <mxGeometry x="460" y="270" width="100" height="60" as="geometry" />
        </mxCell>
        <mxCell id="9yecZXZfRh9bh6N7p5Eo-43" style="edgeStyle=orthogonalEdgeStyle;rounded=0;orthogonalLoop=1;jettySize=auto;html=1;exitX=1;exitY=0.5;exitDx=0;exitDy=0;entryX=0;entryY=0.25;entryDx=0;entryDy=0;entryPerimeter=0;" edge="1" parent="1" source="9yecZXZfRh9bh6N7p5Eo-42" target="9yecZXZfRh9bh6N7p5Eo-5">
          <mxGeometry relative="1" as="geometry" />
        </mxCell>
        <mxCell id="9yecZXZfRh9bh6N7p5Eo-5" value="" style="verticalLabelPosition=bottom;shadow=0;dashed=0;align=center;html=1;verticalAlign=top;shape=mxgraph.electrical.logic_gates.logic_gate;operation=xor;" vertex="1" parent="1">
          <mxGeometry x="620" y="90" width="100" height="60" as="geometry" />
        </mxCell>
        <mxCell id="9yecZXZfRh9bh6N7p5Eo-16" style="edgeStyle=orthogonalEdgeStyle;rounded=0;orthogonalLoop=1;jettySize=auto;html=1;exitX=0;exitY=0.25;exitDx=0;exitDy=0;exitPerimeter=0;entryX=0;entryY=0.25;entryDx=0;entryDy=0;entryPerimeter=0;" edge="1" parent="1" target="9yecZXZfRh9bh6N7p5Eo-6">
          <mxGeometry relative="1" as="geometry">
            <mxPoint x="430" y="150" as="sourcePoint" />
          </mxGeometry>
        </mxCell>
        <mxCell id="9yecZXZfRh9bh6N7p5Eo-17" style="edgeStyle=orthogonalEdgeStyle;rounded=0;orthogonalLoop=1;jettySize=auto;html=1;exitX=1;exitY=0.5;exitDx=0;exitDy=0;exitPerimeter=0;" edge="1" parent="1" source="9yecZXZfRh9bh6N7p5Eo-6">
          <mxGeometry relative="1" as="geometry">
            <mxPoint x="770" y="290" as="targetPoint" />
          </mxGeometry>
        </mxCell>
        <mxCell id="9yecZXZfRh9bh6N7p5Eo-6" value="" style="shape=or;whiteSpace=wrap;html=1;" vertex="1" parent="1">
          <mxGeometry x="680" y="250" width="60" height="80" as="geometry" />
        </mxCell>
        <mxCell id="9yecZXZfRh9bh6N7p5Eo-12" style="edgeStyle=orthogonalEdgeStyle;rounded=0;orthogonalLoop=1;jettySize=auto;html=1;exitX=0;exitY=0.5;exitDx=0;exitDy=0;entryX=0;entryY=0.5;entryDx=0;entryDy=0;" edge="1" parent="1" target="9yecZXZfRh9bh6N7p5Eo-7">
          <mxGeometry relative="1" as="geometry">
            <mxPoint x="110" y="50" as="sourcePoint" />
          </mxGeometry>
        </mxCell>
        <mxCell id="9yecZXZfRh9bh6N7p5Eo-7" value="" style="triangle;whiteSpace=wrap;html=1;" vertex="1" parent="1">
          <mxGeometry x="180" y="10" width="60" height="80" as="geometry" />
        </mxCell>
        <mxCell id="9yecZXZfRh9bh6N7p5Eo-29" style="edgeStyle=orthogonalEdgeStyle;rounded=0;orthogonalLoop=1;jettySize=auto;html=1;exitX=0.175;exitY=0.25;exitDx=0;exitDy=0;exitPerimeter=0;entryX=0.175;entryY=0.25;entryDx=0;entryDy=0;entryPerimeter=0;" edge="1" parent="1" target="9yecZXZfRh9bh6N7p5Eo-8">
          <mxGeometry relative="1" as="geometry">
            <mxPoint x="150" y="260" as="sourcePoint" />
            <Array as="points">
              <mxPoint x="150" y="261" />
              <mxPoint x="160" y="261" />
              <mxPoint x="160" y="390" />
            </Array>
          </mxGeometry>
        </mxCell>
        <mxCell id="9yecZXZfRh9bh6N7p5Eo-30" style="edgeStyle=orthogonalEdgeStyle;rounded=0;orthogonalLoop=1;jettySize=auto;html=1;exitX=0.175;exitY=0.75;exitDx=0;exitDy=0;exitPerimeter=0;entryX=0.175;entryY=0.75;entryDx=0;entryDy=0;entryPerimeter=0;" edge="1" parent="1" target="9yecZXZfRh9bh6N7p5Eo-8">
          <mxGeometry relative="1" as="geometry">
            <mxPoint x="150" y="300" as="sourcePoint" />
            <Array as="points">
              <mxPoint x="150" y="301" />
              <mxPoint x="140" y="301" />
              <mxPoint x="140" y="430" />
            </Array>
          </mxGeometry>
        </mxCell>
        <mxCell id="9yecZXZfRh9bh6N7p5Eo-8" value="" style="shape=xor;whiteSpace=wrap;html=1;" vertex="1" parent="1">
          <mxGeometry x="180" y="370" width="60" height="80" as="geometry" />
        </mxCell>
        <mxCell id="9yecZXZfRh9bh6N7p5Eo-11" style="edgeStyle=orthogonalEdgeStyle;rounded=0;orthogonalLoop=1;jettySize=auto;html=1;exitX=1;exitY=0.5;exitDx=0;exitDy=0;exitPerimeter=0;entryX=0.14;entryY=0.75;entryDx=0;entryDy=0;entryPerimeter=0;" edge="1" parent="1" source="9yecZXZfRh9bh6N7p5Eo-3" target="9yecZXZfRh9bh6N7p5Eo-5">
          <mxGeometry relative="1" as="geometry" />
        </mxCell>
        <mxCell id="9yecZXZfRh9bh6N7p5Eo-15" style="edgeStyle=orthogonalEdgeStyle;rounded=0;orthogonalLoop=1;jettySize=auto;html=1;exitX=1;exitY=0.5;exitDx=0;exitDy=0;exitPerimeter=0;entryX=-0.033;entryY=0.675;entryDx=0;entryDy=0;entryPerimeter=0;" edge="1" parent="1" source="9yecZXZfRh9bh6N7p5Eo-4" target="9yecZXZfRh9bh6N7p5Eo-6">
          <mxGeometry relative="1" as="geometry">
            <Array as="points">
              <mxPoint x="678" y="300" />
            </Array>
          </mxGeometry>
        </mxCell>
        <mxCell id="9yecZXZfRh9bh6N7p5Eo-20" style="edgeStyle=orthogonalEdgeStyle;rounded=0;orthogonalLoop=1;jettySize=auto;html=1;exitX=1;exitY=0.5;exitDx=0;exitDy=0;exitPerimeter=0;entryX=0;entryY=0.75;entryDx=0;entryDy=0;entryPerimeter=0;" edge="1" parent="1" source="9yecZXZfRh9bh6N7p5Eo-8" target="9yecZXZfRh9bh6N7p5Eo-4">
          <mxGeometry relative="1" as="geometry" />
        </mxCell>
        <mxCell id="9yecZXZfRh9bh6N7p5Eo-31" value="a" style="text;html=1;align=center;verticalAlign=middle;resizable=0;points=[];autosize=1;strokeColor=none;fillColor=none;" vertex="1" parent="1">
          <mxGeometry x="80" y="35" width="30" height="30" as="geometry" />
        </mxCell>
        <mxCell id="9yecZXZfRh9bh6N7p5Eo-32" value="b" style="text;html=1;align=center;verticalAlign=middle;resizable=0;points=[];autosize=1;strokeColor=none;fillColor=none;" vertex="1" parent="1">
          <mxGeometry x="95" y="118" width="30" height="30" as="geometry" />
        </mxCell>
        <mxCell id="9yecZXZfRh9bh6N7p5Eo-35" value="c" style="text;html=1;align=center;verticalAlign=middle;resizable=0;points=[];autosize=1;strokeColor=none;fillColor=none;" vertex="1" parent="1">
          <mxGeometry x="95" y="150" width="30" height="30" as="geometry" />
        </mxCell>
        <mxCell id="9yecZXZfRh9bh6N7p5Eo-38" value="x" style="text;html=1;align=center;verticalAlign=middle;resizable=0;points=[];autosize=1;strokeColor=none;fillColor=none;" vertex="1" parent="1">
          <mxGeometry x="725" y="108" width="30" height="30" as="geometry" />
        </mxCell>
        <mxCell id="9yecZXZfRh9bh6N7p5Eo-39" value="y&lt;div&gt;&lt;br&gt;&lt;/div&gt;" style="text;html=1;align=center;verticalAlign=middle;resizable=0;points=[];autosize=1;strokeColor=none;fillColor=none;" vertex="1" parent="1">
          <mxGeometry x="775" y="273" width="30" height="40" as="geometry" />
        </mxCell>
        <mxCell id="9yecZXZfRh9bh6N7p5Eo-40" value="" style="ellipse;whiteSpace=wrap;html=1;aspect=fixed;" vertex="1" parent="1">
          <mxGeometry x="230" y="273" width="10" height="10" as="geometry" />
        </mxCell>
        <mxCell id="9yecZXZfRh9bh6N7p5Eo-42" value="" style="ellipse;whiteSpace=wrap;html=1;aspect=fixed;" vertex="1" parent="1">
          <mxGeometry x="240" y="45" width="10" height="10" as="geometry" />
        </mxCell>
      </root>
    </mxGraphModel>
  </diagram>
</mxfile>
